Coordinates
version=1
nRows=32
nColumns=12
inDegrees=yes

Units are S.I. units (second, meters, Newtons, ...)
Angles are in degrees

endheader
time	SC_y	SC_z	SC_x	AC_y	AC_z	AC_x	GH_y	GH_z	GH_yy	EL_x	PS_y
       0.0               -37.6          1.372          69.72          67.89         -1.128         -18.14          52.57         -7.784          62.07          79.93          37.36
   0.04363               -37.6          1.373          69.71          67.89         -1.128         -18.14          52.57         -7.777          62.08          79.94          37.37
   0.08726               -37.6          1.374           69.7          67.89         -1.128         -18.13          52.56         -7.769          62.09          79.94          37.38
    0.1309               -37.6          1.375          69.69          67.89         -1.129         -18.13          52.55         -7.761           62.1          79.95          37.39
    0.1745               -37.6          1.376          69.68          67.89         -1.129         -18.13          52.55         -7.752          62.11          79.96           37.4
    0.2182              -37.61          1.377          69.67          67.89         -1.129         -18.13          52.54         -7.742          62.12          79.97          37.41
    0.2618              -37.61          1.379          69.66          67.89         -1.129         -18.13          52.53         -7.732          62.13          79.99          37.42
    0.3054              -37.61           1.38          69.65          67.89         -1.129         -18.13          52.52         -7.721          62.14           80.0          37.43
    0.3491              -37.61          1.381          69.64          67.89         -1.129         -18.13          52.51          -7.71          62.15          80.01          37.45
    0.3927              -37.61          1.383          69.62          67.89         -1.129         -18.13           52.5         -7.697          62.17          80.03          37.46
    0.4363              -37.61          1.384          69.61          67.89         -1.129         -18.13          52.49         -7.684          62.18          80.04          37.48
      0.48              -37.62          1.386          69.59          67.89         -1.129         -18.13          52.47         -7.669           62.2          80.06          37.49
    0.5236              -37.62          1.388          69.57          67.89          -1.13         -18.13          52.46         -7.654          62.22          80.08          37.51
    0.5672              -37.62           1.39          69.56          67.89          -1.13         -18.12          52.44         -7.637          62.24           80.1          37.53
    0.6108              -37.62          1.392          69.54          67.89          -1.13         -18.12          52.43         -7.619          62.26          80.12          37.55
    0.6545              -37.62          1.395          69.51          67.89          -1.13         -18.12          52.41         -7.599          62.28          80.14          37.58
    0.6981              -37.63          1.397          69.49          67.89          -1.13         -18.12          52.39         -7.578           62.3          80.16           37.6
    0.7417              -37.63            1.4          69.46          67.89         -1.131         -18.12          52.37         -7.554          62.33          80.19          37.63
    0.7854              -37.63          1.403          69.44          67.89         -1.131         -18.12          52.35         -7.529          62.36          80.22          37.66
     0.829              -37.64          1.406          69.41          67.89         -1.131         -18.11          52.32         -7.501          62.39          80.25           37.7
    0.8726              -37.64           1.41          69.37          67.89         -1.131         -18.11           52.3          -7.47          62.43          80.29          37.73
    0.9163              -37.65          1.414          69.33          67.89         -1.132         -18.11          52.27         -7.437          62.46          80.32          37.77
    0.9599              -37.65          1.418          69.29           67.9         -1.132         -18.11          52.23         -7.399          62.51          80.37          37.82
     1.004              -37.66          1.423          69.25           67.9         -1.133          -18.1           52.2         -7.358          62.55          80.41          37.87
     1.047              -37.66          1.429           69.2           67.9         -1.133          -18.1          52.16         -7.312           62.6          80.47          37.92
     1.091              -37.67          1.435          69.14           67.9         -1.134         -18.09          52.11         -7.261          62.66          80.52          37.98
     1.134              -37.68          1.442          69.08           67.9         -1.134         -18.09          52.06         -7.204          62.73          80.59          38.05
     1.178              -37.69          1.449           69.0           67.9         -1.135         -18.09           52.0         -7.139           62.8          80.66          38.13
     1.222               -37.7          1.458          68.92           67.9         -1.135         -18.08          51.94         -7.066          62.88          80.75          38.21
     1.265              -37.71          1.468          68.83          67.91         -1.136         -18.07          51.86         -6.984          62.98          80.84          38.31
     1.309              -37.72          1.479          68.73          67.91         -1.137         -18.07          51.78         -6.889          63.08          80.95          38.43
     1.353              -37.73          1.492          68.61          67.91         -1.138         -18.06          51.68         -6.781          63.21          81.07          38.55
